<svg width="545" height="275" viewBox="0 0 545 275" fill="none" xmlns="http://www.w3.org/2000/svg">
<path d="M155.775 62.35H275.925V92.05H191.1V126.475H268.95V153.925H191.1V193.3H277.725V223H155.775V62.35Z" fill="#4048F3"/>
<path d="M384.375 204.775C378.075 212.875 371.1 218.575 363.45 221.875C355.8 225.025 348.075 226.6 340.275 226.6C327.975 226.6 316.875 224.5 306.975 220.3C297.225 215.95 288.975 210.025 282.225 202.525C275.475 195.025 270.3 186.25 266.7 176.2C263.1 166 261.3 155.05 261.3 143.35C261.3 131.35 263.1 120.25 266.7 110.05C270.3 99.7 275.475 90.7 282.225 83.05C288.975 75.4 297.225 69.4 306.975 65.05C316.875 60.7 327.975 58.525 340.275 58.525C348.525 58.525 356.475 59.8 364.125 62.35C371.925 64.75 378.9 68.35 385.05 73.15C391.35 77.95 396.525 83.875 400.575 90.925C404.625 97.975 407.1 106.075 408 115.225H374.25C372.15 106.225 368.1 99.475 362.1 94.975C356.1 90.475 348.825 88.225 340.275 88.225C332.325 88.225 325.575 89.8 320.025 92.95C314.475 95.95 309.975 100.075 306.525 105.325C303.075 110.425 300.525 116.275 298.875 122.875C297.375 129.475 296.625 136.3 296.625 143.35C296.625 150.1 297.375 156.7 298.875 163.15C300.525 169.45 303.075 175.15 306.525 180.25C309.975 185.35 314.475 189.475 320.025 192.625C325.575 195.625 332.325 197.125 340.275 197.125C351.975 197.125 360.975 194.2 367.275 188.35C373.725 182.35 377.475 173.725 378.525 162.475H342.975V136.15H410.475V223H387.975L384.375 204.775Z" fill="#4048F3"/>
<path d="M15.525 62.35H65.25L102.825 172.825H103.275L138.825 62.35H188.55V223H155.475V109.15H155.025L115.65 223H88.425L49.05 110.275H48.6V223H15.525V62.35Z" fill="#4048F3"/>
<path d="M445.275 160.9H486.9L466.65 101.95H466.2L445.275 160.9ZM448.65 62.35H484.875L544.95 223H508.275L496.125 187.225H436.05L423.45 223H387.9L448.65 62.35Z" fill="#4048F3"/>
<path d="M16.1613 143.86H17.4613L19.7113 149.86L21.9713 143.86H23.2713V151H22.3713V145.06H22.3513L20.1213 151H19.3113L17.0813 145.06H17.0613V151H16.1613V143.86ZM29.2923 150.98C29.1456 151.067 28.9423 151.11 28.6823 151.11C28.4623 151.11 28.2856 151.05 28.1523 150.93C28.0256 150.803 27.9623 150.6 27.9623 150.32C27.7289 150.6 27.4556 150.803 27.1423 150.93C26.8356 151.05 26.5023 151.11 26.1423 151.11C25.9089 151.11 25.6856 151.083 25.4723 151.03C25.2656 150.977 25.0856 150.893 24.9323 150.78C24.7789 150.667 24.6556 150.52 24.5623 150.34C24.4756 150.153 24.4323 149.93 24.4323 149.67C24.4323 149.377 24.4823 149.137 24.5823 148.95C24.6823 148.763 24.8123 148.613 24.9723 148.5C25.1389 148.38 25.3256 148.29 25.5323 148.23C25.7456 148.17 25.9623 148.12 26.1823 148.08C26.4156 148.033 26.6356 148 26.8423 147.98C27.0556 147.953 27.2423 147.92 27.4023 147.88C27.5623 147.833 27.6889 147.77 27.7823 147.69C27.8756 147.603 27.9223 147.48 27.9223 147.32C27.9223 147.133 27.8856 146.983 27.8123 146.87C27.7456 146.757 27.6556 146.67 27.5423 146.61C27.4356 146.55 27.3123 146.51 27.1723 146.49C27.0389 146.47 26.9056 146.46 26.7723 146.46C26.4123 146.46 26.1123 146.53 25.8723 146.67C25.6323 146.803 25.5023 147.06 25.4823 147.44H24.6323C24.6456 147.12 24.7123 146.85 24.8323 146.63C24.9523 146.41 25.1123 146.233 25.3123 146.1C25.5123 145.96 25.7389 145.86 25.9923 145.8C26.2523 145.74 26.5289 145.71 26.8223 145.71C27.0556 145.71 27.2856 145.727 27.5123 145.76C27.7456 145.793 27.9556 145.863 28.1423 145.97C28.3289 146.07 28.4789 146.213 28.5923 146.4C28.7056 146.587 28.7623 146.83 28.7623 147.13V149.79C28.7623 149.99 28.7723 150.137 28.7923 150.23C28.8189 150.323 28.8989 150.37 29.0323 150.37C29.1056 150.37 29.1923 150.353 29.2923 150.32V150.98ZM27.9123 148.33C27.8056 148.41 27.6656 148.47 27.4923 148.51C27.3189 148.543 27.1356 148.573 26.9423 148.6C26.7556 148.62 26.5656 148.647 26.3723 148.68C26.1789 148.707 26.0056 148.753 25.8523 148.82C25.6989 148.887 25.5723 148.983 25.4723 149.11C25.3789 149.23 25.3323 149.397 25.3323 149.61C25.3323 149.75 25.3589 149.87 25.4123 149.97C25.4723 150.063 25.5456 150.14 25.6323 150.2C25.7256 150.26 25.8323 150.303 25.9523 150.33C26.0723 150.357 26.1989 150.37 26.3323 150.37C26.6123 150.37 26.8523 150.333 27.0523 150.26C27.2523 150.18 27.4156 150.083 27.5423 149.97C27.6689 149.85 27.7623 149.723 27.8223 149.59C27.8823 149.45 27.9123 149.32 27.9123 149.2V148.33ZM30.1334 143.86H30.9834V148.09L33.3434 145.83H34.4834L32.4334 147.71L34.6334 151H33.5534L31.7834 148.3L30.9834 149.04V151H30.1334V143.86ZM38.8589 147.92C38.8456 147.72 38.7989 147.53 38.7189 147.35C38.6456 147.17 38.5422 147.017 38.4089 146.89C38.2822 146.757 38.1289 146.653 37.9489 146.58C37.7756 146.5 37.5822 146.46 37.3689 146.46C37.1489 146.46 36.9489 146.5 36.7689 146.58C36.5956 146.653 36.4456 146.757 36.3189 146.89C36.1922 147.023 36.0922 147.18 36.0189 147.36C35.9456 147.533 35.9022 147.72 35.8889 147.92H38.8589ZM39.6789 149.36C39.5656 149.94 39.3156 150.377 38.9289 150.67C38.5422 150.963 38.0556 151.11 37.4689 151.11C37.0556 151.11 36.6956 151.043 36.3889 150.91C36.0889 150.777 35.8356 150.59 35.6289 150.35C35.4222 150.11 35.2656 149.823 35.1589 149.49C35.0589 149.157 35.0022 148.793 34.9889 148.4C34.9889 148.007 35.0489 147.647 35.1689 147.32C35.2889 146.993 35.4556 146.71 35.6689 146.47C35.8889 146.23 36.1456 146.043 36.4389 145.91C36.7389 145.777 37.0656 145.71 37.4189 145.71C37.8789 145.71 38.2589 145.807 38.5589 146C38.8656 146.187 39.1089 146.427 39.2889 146.72C39.4756 147.013 39.6022 147.333 39.6689 147.68C39.7422 148.027 39.7722 148.357 39.7589 148.67H35.8889C35.8822 148.897 35.9089 149.113 35.9689 149.32C36.0289 149.52 36.1256 149.7 36.2589 149.86C36.3922 150.013 36.5622 150.137 36.7689 150.23C36.9756 150.323 37.2189 150.37 37.4989 150.37C37.8589 150.37 38.1522 150.287 38.3789 150.12C38.6122 149.953 38.7656 149.7 38.8389 149.36H39.6789Z" fill="white"/>
<path d="M156.255 143.86H161.185V144.66H157.205V146.93H160.915V147.73H157.205V150.2H161.215V151H156.255V143.86ZM166.808 150.98C166.661 151.067 166.458 151.11 166.198 151.11C165.978 151.11 165.801 151.05 165.668 150.93C165.541 150.803 165.478 150.6 165.478 150.32C165.245 150.6 164.971 150.803 164.658 150.93C164.351 151.05 164.018 151.11 163.658 151.11C163.425 151.11 163.201 151.083 162.988 151.03C162.781 150.977 162.601 150.893 162.448 150.78C162.295 150.667 162.171 150.52 162.078 150.34C161.991 150.153 161.948 149.93 161.948 149.67C161.948 149.377 161.998 149.137 162.098 148.95C162.198 148.763 162.328 148.613 162.488 148.5C162.655 148.38 162.841 148.29 163.048 148.23C163.261 148.17 163.478 148.12 163.698 148.08C163.931 148.033 164.151 148 164.358 147.98C164.571 147.953 164.758 147.92 164.918 147.88C165.078 147.833 165.205 147.77 165.298 147.69C165.391 147.603 165.438 147.48 165.438 147.32C165.438 147.133 165.401 146.983 165.328 146.87C165.261 146.757 165.171 146.67 165.058 146.61C164.951 146.55 164.828 146.51 164.688 146.49C164.555 146.47 164.421 146.46 164.288 146.46C163.928 146.46 163.628 146.53 163.388 146.67C163.148 146.803 163.018 147.06 162.998 147.44H162.148C162.161 147.12 162.228 146.85 162.348 146.63C162.468 146.41 162.628 146.233 162.828 146.1C163.028 145.96 163.255 145.86 163.508 145.8C163.768 145.74 164.045 145.71 164.338 145.71C164.571 145.71 164.801 145.727 165.028 145.76C165.261 145.793 165.471 145.863 165.658 145.97C165.845 146.07 165.995 146.213 166.108 146.4C166.221 146.587 166.278 146.83 166.278 147.13V149.79C166.278 149.99 166.288 150.137 166.308 150.23C166.335 150.323 166.415 150.37 166.548 150.37C166.621 150.37 166.708 150.353 166.808 150.32V150.98ZM165.428 148.33C165.321 148.41 165.181 148.47 165.008 148.51C164.835 148.543 164.651 148.573 164.458 148.6C164.271 148.62 164.081 148.647 163.888 148.68C163.695 148.707 163.521 148.753 163.368 148.82C163.215 148.887 163.088 148.983 162.988 149.11C162.895 149.23 162.848 149.397 162.848 149.61C162.848 149.75 162.875 149.87 162.928 149.97C162.988 150.063 163.061 150.14 163.148 150.2C163.241 150.26 163.348 150.303 163.468 150.33C163.588 150.357 163.715 150.37 163.848 150.37C164.128 150.37 164.368 150.333 164.568 150.26C164.768 150.18 164.931 150.083 165.058 149.97C165.185 149.85 165.278 149.723 165.338 149.59C165.398 149.45 165.428 149.32 165.428 149.2V148.33ZM167.569 145.83H168.369V146.92H168.389C168.596 146.5 168.849 146.19 169.149 145.99C169.449 145.79 169.829 145.697 170.289 145.71V146.61C169.949 146.61 169.659 146.657 169.419 146.75C169.179 146.843 168.986 146.98 168.839 147.16C168.692 147.34 168.586 147.56 168.519 147.82C168.452 148.073 168.419 148.367 168.419 148.7V151H167.569V145.83ZM172.109 145.83H173.139V146.58H172.109V149.79C172.109 149.89 172.116 149.97 172.129 150.03C172.149 150.09 172.182 150.137 172.229 150.17C172.276 150.203 172.339 150.227 172.419 150.24C172.506 150.247 172.616 150.25 172.749 150.25H173.139V151H172.489C172.269 151 172.079 150.987 171.919 150.96C171.766 150.927 171.639 150.87 171.539 150.79C171.446 150.71 171.376 150.597 171.329 150.45C171.282 150.303 171.259 150.11 171.259 149.87V146.58H170.379V145.83H171.259V144.28H172.109V145.83ZM174.083 143.86H174.933V146.59H174.953C175.02 146.43 175.113 146.297 175.233 146.19C175.353 146.077 175.487 145.987 175.633 145.92C175.787 145.847 175.943 145.793 176.103 145.76C176.27 145.727 176.43 145.71 176.583 145.71C176.923 145.71 177.207 145.757 177.433 145.85C177.66 145.943 177.843 146.073 177.983 146.24C178.123 146.407 178.22 146.607 178.273 146.84C178.333 147.067 178.363 147.32 178.363 147.6V151H177.513V147.5C177.513 147.18 177.42 146.927 177.233 146.74C177.047 146.553 176.79 146.46 176.463 146.46C176.203 146.46 175.977 146.5 175.783 146.58C175.597 146.66 175.44 146.773 175.313 146.92C175.187 147.067 175.09 147.24 175.023 147.44C174.963 147.633 174.933 147.847 174.933 148.08V151H174.083V143.86Z" fill="white"/>
<path d="M269.12 150.11C268.84 150.483 268.493 150.753 268.08 150.92C267.667 151.08 267.25 151.16 266.83 151.16C266.297 151.16 265.82 151.063 265.4 150.87C264.98 150.67 264.623 150.403 264.33 150.07C264.037 149.737 263.813 149.353 263.66 148.92C263.507 148.487 263.43 148.037 263.43 147.57C263.43 147.05 263.5 146.557 263.64 146.09C263.787 145.617 264 145.203 264.28 144.85C264.567 144.497 264.92 144.217 265.34 144.01C265.767 143.797 266.263 143.69 266.83 143.69C267.217 143.69 267.58 143.737 267.92 143.83C268.267 143.917 268.573 144.057 268.84 144.25C269.113 144.443 269.34 144.69 269.52 144.99C269.707 145.283 269.833 145.64 269.9 146.06H268.95C268.903 145.787 268.817 145.553 268.69 145.36C268.563 145.16 268.407 144.997 268.22 144.87C268.033 144.743 267.82 144.65 267.58 144.59C267.347 144.523 267.097 144.49 266.83 144.49C266.397 144.49 266.023 144.577 265.71 144.75C265.403 144.923 265.15 145.153 264.95 145.44C264.757 145.72 264.613 146.043 264.52 146.41C264.427 146.77 264.38 147.14 264.38 147.52C264.38 147.893 264.433 148.253 264.54 148.6C264.647 148.94 264.803 149.243 265.01 149.51C265.217 149.77 265.47 149.98 265.77 150.14C266.077 150.293 266.43 150.37 266.83 150.37C267.203 150.37 267.533 150.31 267.82 150.19C268.107 150.07 268.347 149.907 268.54 149.7C268.74 149.487 268.89 149.24 268.99 148.96C269.09 148.673 269.133 148.367 269.12 148.04H266.84V147.24H269.97V151H269.37L269.12 150.11ZM271.198 145.83H271.998V146.92H272.018C272.225 146.5 272.478 146.19 272.778 145.99C273.078 145.79 273.458 145.697 273.918 145.71V146.61C273.578 146.61 273.288 146.657 273.048 146.75C272.808 146.843 272.615 146.98 272.468 147.16C272.321 147.34 272.215 147.56 272.148 147.82C272.081 148.073 272.048 148.367 272.048 148.7V151H271.198V145.83ZM277.972 147.92C277.959 147.72 277.912 147.53 277.832 147.35C277.759 147.17 277.656 147.017 277.522 146.89C277.396 146.757 277.242 146.653 277.062 146.58C276.889 146.5 276.696 146.46 276.482 146.46C276.262 146.46 276.062 146.5 275.882 146.58C275.709 146.653 275.559 146.757 275.432 146.89C275.306 147.023 275.206 147.18 275.132 147.36C275.059 147.533 275.016 147.72 275.002 147.92H277.972ZM278.792 149.36C278.679 149.94 278.429 150.377 278.042 150.67C277.656 150.963 277.169 151.11 276.582 151.11C276.169 151.11 275.809 151.043 275.502 150.91C275.202 150.777 274.949 150.59 274.742 150.35C274.536 150.11 274.379 149.823 274.272 149.49C274.172 149.157 274.116 148.793 274.102 148.4C274.102 148.007 274.162 147.647 274.282 147.32C274.402 146.993 274.569 146.71 274.782 146.47C275.002 146.23 275.259 146.043 275.552 145.91C275.852 145.777 276.179 145.71 276.532 145.71C276.992 145.71 277.372 145.807 277.672 146C277.979 146.187 278.222 146.427 278.402 146.72C278.589 147.013 278.716 147.333 278.782 147.68C278.856 148.027 278.886 148.357 278.872 148.67H275.002C274.996 148.897 275.022 149.113 275.082 149.32C275.142 149.52 275.239 149.7 275.372 149.86C275.506 150.013 275.676 150.137 275.882 150.23C276.089 150.323 276.332 150.37 276.612 150.37C276.972 150.37 277.266 150.287 277.492 150.12C277.726 149.953 277.879 149.7 277.952 149.36H278.792ZM284.333 150.98C284.187 151.067 283.983 151.11 283.723 151.11C283.503 151.11 283.327 151.05 283.193 150.93C283.067 150.803 283.003 150.6 283.003 150.32C282.77 150.6 282.497 150.803 282.183 150.93C281.877 151.05 281.543 151.11 281.183 151.11C280.95 151.11 280.727 151.083 280.513 151.03C280.307 150.977 280.127 150.893 279.973 150.78C279.82 150.667 279.697 150.52 279.603 150.34C279.517 150.153 279.473 149.93 279.473 149.67C279.473 149.377 279.523 149.137 279.623 148.95C279.723 148.763 279.853 148.613 280.013 148.5C280.18 148.38 280.367 148.29 280.573 148.23C280.787 148.17 281.003 148.12 281.223 148.08C281.457 148.033 281.677 148 281.883 147.98C282.097 147.953 282.283 147.92 282.443 147.88C282.603 147.833 282.73 147.77 282.823 147.69C282.917 147.603 282.963 147.48 282.963 147.32C282.963 147.133 282.927 146.983 282.853 146.87C282.787 146.757 282.697 146.67 282.583 146.61C282.477 146.55 282.353 146.51 282.213 146.49C282.08 146.47 281.947 146.46 281.813 146.46C281.453 146.46 281.153 146.53 280.913 146.67C280.673 146.803 280.543 147.06 280.523 147.44H279.673C279.687 147.12 279.753 146.85 279.873 146.63C279.993 146.41 280.153 146.233 280.353 146.1C280.553 145.96 280.78 145.86 281.033 145.8C281.293 145.74 281.57 145.71 281.863 145.71C282.097 145.71 282.327 145.727 282.553 145.76C282.787 145.793 282.997 145.863 283.183 145.97C283.37 146.07 283.52 146.213 283.633 146.4C283.747 146.587 283.803 146.83 283.803 147.13V149.79C283.803 149.99 283.813 150.137 283.833 150.23C283.86 150.323 283.94 150.37 284.073 150.37C284.147 150.37 284.233 150.353 284.333 150.32V150.98ZM282.953 148.33C282.847 148.41 282.707 148.47 282.533 148.51C282.36 148.543 282.177 148.573 281.983 148.6C281.797 148.62 281.607 148.647 281.413 148.68C281.22 148.707 281.047 148.753 280.893 148.82C280.74 148.887 280.613 148.983 280.513 149.11C280.42 149.23 280.373 149.397 280.373 149.61C280.373 149.75 280.4 149.87 280.453 149.97C280.513 150.063 280.587 150.14 280.673 150.2C280.767 150.26 280.873 150.303 280.993 150.33C281.113 150.357 281.24 150.37 281.373 150.37C281.653 150.37 281.893 150.333 282.093 150.26C282.293 150.18 282.457 150.083 282.583 149.97C282.71 149.85 282.803 149.723 282.863 149.59C282.923 149.45 282.953 149.32 282.953 149.2V148.33ZM286.304 145.83H287.334V146.58H286.304V149.79C286.304 149.89 286.311 149.97 286.324 150.03C286.344 150.09 286.378 150.137 286.424 150.17C286.471 150.203 286.534 150.227 286.614 150.24C286.701 150.247 286.811 150.25 286.944 150.25H287.334V151H286.684C286.464 151 286.274 150.987 286.114 150.96C285.961 150.927 285.834 150.87 285.734 150.79C285.641 150.71 285.571 150.597 285.524 150.45C285.478 150.303 285.454 150.11 285.454 149.87V146.58H284.574V145.83H285.454V144.28H286.304V145.83Z" fill="white"/>
<path d="M382.01 148.05H384.43L383.24 144.72H383.22L382.01 148.05ZM382.72 143.86H383.77L386.56 151H385.51L384.73 148.85H381.71L380.91 151H379.94L382.72 143.86ZM391.584 150.56C391.584 151.407 391.391 152.04 391.004 152.46C390.618 152.88 390.011 153.09 389.184 153.09C388.944 153.09 388.698 153.063 388.444 153.01C388.198 152.957 387.971 152.87 387.764 152.75C387.564 152.63 387.398 152.473 387.264 152.28C387.131 152.087 387.058 151.85 387.044 151.57H387.894C387.901 151.723 387.948 151.853 388.034 151.96C388.128 152.067 388.238 152.153 388.364 152.22C388.498 152.287 388.641 152.333 388.794 152.36C388.948 152.393 389.094 152.41 389.234 152.41C389.514 152.41 389.751 152.36 389.944 152.26C390.138 152.167 390.298 152.033 390.424 151.86C390.551 151.693 390.641 151.49 390.694 151.25C390.754 151.01 390.784 150.747 390.784 150.46V150.12H390.764C390.618 150.44 390.394 150.677 390.094 150.83C389.801 150.977 389.488 151.05 389.154 151.05C388.768 151.05 388.431 150.98 388.144 150.84C387.858 150.7 387.618 150.513 387.424 150.28C387.231 150.04 387.084 149.763 386.984 149.45C386.891 149.13 386.844 148.793 386.844 148.44C386.844 148.133 386.884 147.82 386.964 147.5C387.044 147.173 387.178 146.88 387.364 146.62C387.551 146.353 387.798 146.137 388.104 145.97C388.411 145.797 388.788 145.71 389.234 145.71C389.561 145.71 389.861 145.783 390.134 145.93C390.408 146.07 390.621 146.283 390.774 146.57H390.784V145.83H391.584V150.56ZM389.204 150.31C389.484 150.31 389.721 150.253 389.914 150.14C390.114 150.02 390.274 149.867 390.394 149.68C390.514 149.487 390.601 149.27 390.654 149.03C390.714 148.79 390.744 148.55 390.744 148.31C390.744 148.083 390.718 147.86 390.664 147.64C390.611 147.42 390.524 147.223 390.404 147.05C390.291 146.87 390.141 146.727 389.954 146.62C389.768 146.513 389.541 146.46 389.274 146.46C389.001 146.46 388.768 146.513 388.574 146.62C388.381 146.72 388.221 146.857 388.094 147.03C387.974 147.203 387.884 147.403 387.824 147.63C387.771 147.857 387.744 148.093 387.744 148.34C387.744 148.573 387.768 148.807 387.814 149.04C387.861 149.273 387.941 149.487 388.054 149.68C388.168 149.867 388.318 150.02 388.504 150.14C388.691 150.253 388.924 150.31 389.204 150.31ZM397.447 150.98C397.3 151.067 397.097 151.11 396.837 151.11C396.617 151.11 396.44 151.05 396.307 150.93C396.18 150.803 396.117 150.6 396.117 150.32C395.883 150.6 395.61 150.803 395.297 150.93C394.99 151.05 394.657 151.11 394.297 151.11C394.063 151.11 393.84 151.083 393.627 151.03C393.42 150.977 393.24 150.893 393.087 150.78C392.933 150.667 392.81 150.52 392.717 150.34C392.63 150.153 392.587 149.93 392.587 149.67C392.587 149.377 392.637 149.137 392.737 148.95C392.837 148.763 392.967 148.613 393.127 148.5C393.293 148.38 393.48 148.29 393.687 148.23C393.9 148.17 394.117 148.12 394.337 148.08C394.57 148.033 394.79 148 394.997 147.98C395.21 147.953 395.397 147.92 395.557 147.88C395.717 147.833 395.843 147.77 395.937 147.69C396.03 147.603 396.077 147.48 396.077 147.32C396.077 147.133 396.04 146.983 395.967 146.87C395.9 146.757 395.81 146.67 395.697 146.61C395.59 146.55 395.467 146.51 395.327 146.49C395.193 146.47 395.06 146.46 394.927 146.46C394.567 146.46 394.267 146.53 394.027 146.67C393.787 146.803 393.657 147.06 393.637 147.44H392.787C392.8 147.12 392.867 146.85 392.987 146.63C393.107 146.41 393.267 146.233 393.467 146.1C393.667 145.96 393.893 145.86 394.147 145.8C394.407 145.74 394.683 145.71 394.977 145.71C395.21 145.71 395.44 145.727 395.667 145.76C395.9 145.793 396.11 145.863 396.297 145.97C396.483 146.07 396.633 146.213 396.747 146.4C396.86 146.587 396.917 146.83 396.917 147.13V149.79C396.917 149.99 396.927 150.137 396.947 150.23C396.973 150.323 397.053 150.37 397.187 150.37C397.26 150.37 397.347 150.353 397.447 150.32V150.98ZM396.067 148.33C395.96 148.41 395.82 148.47 395.647 148.51C395.473 148.543 395.29 148.573 395.097 148.6C394.91 148.62 394.72 148.647 394.527 148.68C394.333 148.707 394.16 148.753 394.007 148.82C393.853 148.887 393.727 148.983 393.627 149.11C393.533 149.23 393.487 149.397 393.487 149.61C393.487 149.75 393.513 149.87 393.567 149.97C393.627 150.063 393.7 150.14 393.787 150.2C393.88 150.26 393.987 150.303 394.107 150.33C394.227 150.357 394.353 150.37 394.487 150.37C394.767 150.37 395.007 150.333 395.207 150.26C395.407 150.18 395.57 150.083 395.697 149.97C395.823 149.85 395.917 149.723 395.977 149.59C396.037 149.45 396.067 149.32 396.067 149.2V148.33ZM399.138 144.9H398.288V143.86H399.138V144.9ZM398.288 145.83H399.138V151H398.288V145.83ZM400.454 145.83H401.254V146.65H401.274C401.628 146.023 402.188 145.71 402.954 145.71C403.294 145.71 403.578 145.757 403.804 145.85C404.031 145.943 404.214 146.073 404.354 146.24C404.494 146.407 404.591 146.607 404.644 146.84C404.704 147.067 404.734 147.32 404.734 147.6V151H403.884V147.5C403.884 147.18 403.791 146.927 403.604 146.74C403.418 146.553 403.161 146.46 402.834 146.46C402.574 146.46 402.348 146.5 402.154 146.58C401.968 146.66 401.811 146.773 401.684 146.92C401.558 147.067 401.461 147.24 401.394 147.44C401.334 147.633 401.304 147.847 401.304 148.08V151H400.454V145.83Z" fill="white"/>
</svg>
