<svg width="234" height="244" viewBox="0 0 234 244" fill="none" xmlns="http://www.w3.org/2000/svg">
<path d="M5.8 17.16H13.6L27.1 53.16L40.66 17.16H48.46V60H43.06V24.36H42.94L29.56 60H24.7L11.32 24.36H11.2V60H5.8V17.16ZM85.5856 59.88C84.7056 60.4 83.4856 60.66 81.9256 60.66C80.6056 60.66 79.5456 60.3 78.7456 59.58C77.9856 58.82 77.6056 57.6 77.6056 55.92C76.2056 57.6 74.5656 58.82 72.6856 59.58C70.8456 60.3 68.8456 60.66 66.6856 60.66C65.2856 60.66 63.9456 60.5 62.6656 60.18C61.4256 59.86 60.3456 59.36 59.4256 58.68C58.5056 58 57.7656 57.12 57.2056 56.04C56.6856 54.92 56.4256 53.58 56.4256 52.02C56.4256 50.26 56.7256 48.82 57.3256 47.7C57.9256 46.58 58.7056 45.68 59.6656 45C60.6656 44.28 61.7856 43.74 63.0256 43.38C64.3056 43.02 65.6056 42.72 66.9256 42.48C68.3256 42.2 69.6456 42 70.8856 41.88C72.1656 41.72 73.2856 41.52 74.2456 41.28C75.2056 41 75.9656 40.62 76.5256 40.14C77.0856 39.62 77.3656 38.88 77.3656 37.92C77.3656 36.8 77.1456 35.9 76.7056 35.22C76.3056 34.54 75.7656 34.02 75.0856 33.66C74.4456 33.3 73.7056 33.06 72.8656 32.94C72.0656 32.82 71.2656 32.76 70.4656 32.76C68.3056 32.76 66.5056 33.18 65.0656 34.02C63.6256 34.82 62.8456 36.36 62.7256 38.64H57.6256C57.7056 36.72 58.1056 35.1 58.8256 33.78C59.5456 32.46 60.5056 31.4 61.7056 30.6C62.9056 29.76 64.2656 29.16 65.7856 28.8C67.3456 28.44 69.0056 28.26 70.7656 28.26C72.1656 28.26 73.5456 28.36 74.9056 28.56C76.3056 28.76 77.5656 29.18 78.6856 29.82C79.8056 30.42 80.7056 31.28 81.3856 32.4C82.0656 33.52 82.4056 34.98 82.4056 36.78V52.74C82.4056 53.94 82.4656 54.82 82.5856 55.38C82.7456 55.94 83.2256 56.22 84.0256 56.22C84.4656 56.22 84.9856 56.12 85.5856 55.92V59.88ZM77.3056 43.98C76.6656 44.46 75.8256 44.82 74.7856 45.06C73.7456 45.26 72.6456 45.44 71.4856 45.6C70.3656 45.72 69.2256 45.88 68.0656 46.08C66.9056 46.24 65.8656 46.52 64.9456 46.92C64.0256 47.32 63.2656 47.9 62.6656 48.66C62.1056 49.38 61.8256 50.38 61.8256 51.66C61.8256 52.5 61.9856 53.22 62.3056 53.82C62.6656 54.38 63.1056 54.84 63.6256 55.2C64.1856 55.56 64.8256 55.82 65.5456 55.98C66.2656 56.14 67.0256 56.22 67.8256 56.22C69.5056 56.22 70.9456 56 72.1456 55.56C73.3456 55.08 74.3256 54.5 75.0856 53.82C75.8456 53.1 76.4056 52.34 76.7656 51.54C77.1256 50.7 77.3056 49.92 77.3056 49.2V43.98ZM91.6322 17.16H96.7322V42.54L110.892 28.98H117.732L105.432 40.26L118.632 60H112.152L101.532 43.8L96.7322 48.24V60H91.6322V17.16ZM144.985 41.52C144.905 40.32 144.625 39.18 144.145 38.1C143.705 37.02 143.085 36.1 142.285 35.34C141.525 34.54 140.605 33.92 139.525 33.48C138.485 33 137.325 32.76 136.045 32.76C134.725 32.76 133.525 33 132.445 33.48C131.405 33.92 130.505 34.54 129.745 35.34C128.985 36.14 128.385 37.08 127.945 38.16C127.505 39.2 127.245 40.32 127.165 41.52H144.985ZM149.905 50.16C149.225 53.64 147.725 56.26 145.405 58.02C143.085 59.78 140.165 60.66 136.645 60.66C134.165 60.66 132.005 60.26 130.165 59.46C128.365 58.66 126.845 57.54 125.605 56.1C124.365 54.66 123.425 52.94 122.785 50.94C122.185 48.94 121.845 46.76 121.765 44.4C121.765 42.04 122.125 39.88 122.845 37.92C123.565 35.96 124.565 34.26 125.845 32.82C127.165 31.38 128.705 30.26 130.465 29.46C132.265 28.66 134.225 28.26 136.345 28.26C139.105 28.26 141.385 28.84 143.185 30C145.025 31.12 146.485 32.56 147.565 34.32C148.685 36.08 149.445 38 149.845 40.08C150.285 42.16 150.465 44.14 150.385 46.02H127.165C127.125 47.38 127.285 48.68 127.645 49.92C128.005 51.12 128.585 52.2 129.385 53.16C130.185 54.08 131.205 54.82 132.445 55.38C133.685 55.94 135.145 56.22 136.825 56.22C138.985 56.22 140.745 55.72 142.105 54.72C143.505 53.72 144.425 52.2 144.865 50.16H149.905ZM5.68 74.16H35.26V78.96H11.38V92.58H33.64V97.38H11.38V112.2H35.44V117H5.68V74.16ZM69.9997 116.88C69.1197 117.4 67.8997 117.66 66.3397 117.66C65.0197 117.66 63.9597 117.3 63.1597 116.58C62.3997 115.82 62.0197 114.6 62.0197 112.92C60.6197 114.6 58.9797 115.82 57.0997 116.58C55.2597 117.3 53.2597 117.66 51.0997 117.66C49.6997 117.66 48.3597 117.5 47.0797 117.18C45.8397 116.86 44.7597 116.36 43.8397 115.68C42.9197 115 42.1797 114.12 41.6197 113.04C41.0997 111.92 40.8397 110.58 40.8397 109.02C40.8397 107.26 41.1397 105.82 41.7397 104.7C42.3397 103.58 43.1197 102.68 44.0797 102C45.0797 101.28 46.1997 100.74 47.4397 100.38C48.7197 100.02 50.0197 99.72 51.3397 99.48C52.7397 99.2 54.0597 99 55.2997 98.88C56.5797 98.72 57.6997 98.52 58.6597 98.28C59.6197 98 60.3797 97.62 60.9397 97.14C61.4997 96.62 61.7797 95.88 61.7797 94.92C61.7797 93.8 61.5597 92.9 61.1197 92.22C60.7197 91.54 60.1797 91.02 59.4997 90.66C58.8597 90.3 58.1197 90.06 57.2797 89.94C56.4797 89.82 55.6797 89.76 54.8797 89.76C52.7197 89.76 50.9197 90.18 49.4797 91.02C48.0397 91.82 47.2597 93.36 47.1397 95.64H42.0397C42.1197 93.72 42.5197 92.1 43.2397 90.78C43.9597 89.46 44.9197 88.4 46.1197 87.6C47.3197 86.76 48.6797 86.16 50.1997 85.8C51.7597 85.44 53.4197 85.26 55.1797 85.26C56.5797 85.26 57.9597 85.36 59.3197 85.56C60.7197 85.76 61.9797 86.18 63.0997 86.82C64.2197 87.42 65.1197 88.28 65.7997 89.4C66.4797 90.52 66.8197 91.98 66.8197 93.78V109.74C66.8197 110.94 66.8797 111.82 66.9997 112.38C67.1597 112.94 67.6397 113.22 68.4397 113.22C68.8797 113.22 69.3997 113.12 69.9997 112.92V116.88ZM61.7197 100.98C61.0797 101.46 60.2397 101.82 59.1997 102.06C58.1597 102.26 57.0597 102.44 55.8997 102.6C54.7797 102.72 53.6397 102.88 52.4797 103.08C51.3197 103.24 50.2797 103.52 49.3597 103.92C48.4397 104.32 47.6797 104.9 47.0797 105.66C46.5197 106.38 46.2397 107.38 46.2397 108.66C46.2397 109.5 46.3997 110.22 46.7197 110.82C47.0797 111.38 47.5197 111.84 48.0397 112.2C48.5997 112.56 49.2397 112.82 49.9597 112.98C50.6797 113.14 51.4397 113.22 52.2397 113.22C53.9197 113.22 55.3597 113 56.5597 112.56C57.7597 112.08 58.7397 111.5 59.4997 110.82C60.2597 110.1 60.8197 109.34 61.1797 108.54C61.5397 107.7 61.7197 106.92 61.7197 106.2V100.98ZM75.5663 85.98H80.3663V92.52H80.4863C81.7263 90 83.2463 88.14 85.0463 86.94C86.8463 85.74 89.1263 85.18 91.8863 85.26V90.66C89.8463 90.66 88.1063 90.94 86.6663 91.5C85.2263 92.06 84.0663 92.88 83.1863 93.96C82.3063 95.04 81.6663 96.36 81.2663 97.92C80.8663 99.44 80.6663 101.2 80.6663 103.2V117H75.5663V85.98ZM103.807 85.98H109.987V90.48H103.807V109.74C103.807 110.34 103.847 110.82 103.927 111.18C104.047 111.54 104.247 111.82 104.527 112.02C104.807 112.22 105.187 112.36 105.667 112.44C106.187 112.48 106.847 112.5 107.647 112.5H109.987V117H106.087C104.767 117 103.627 116.92 102.667 116.76C101.747 116.56 100.987 116.22 100.387 115.74C99.8267 115.26 99.4067 114.58 99.1267 113.7C98.8467 112.82 98.7067 111.66 98.7067 110.22V90.48H93.4267V85.98H98.7067V76.68H103.807V85.98ZM116.653 74.16H121.753V90.54H121.873C122.273 89.58 122.833 88.78 123.553 88.14C124.273 87.46 125.073 86.92 125.953 86.52C126.873 86.08 127.813 85.76 128.773 85.56C129.773 85.36 130.733 85.26 131.653 85.26C133.693 85.26 135.393 85.54 136.753 86.1C138.113 86.66 139.213 87.44 140.053 88.44C140.893 89.44 141.473 90.64 141.793 92.04C142.153 93.4 142.333 94.92 142.333 96.6V117H137.233V96C137.233 94.08 136.673 92.56 135.553 91.44C134.433 90.32 132.893 89.76 130.933 89.76C129.373 89.76 128.013 90 126.853 90.48C125.733 90.96 124.793 91.64 124.033 92.52C123.273 93.4 122.693 94.44 122.293 95.64C121.933 96.8 121.753 98.08 121.753 99.48V117H116.653V74.16ZM37.72 168.66C36.04 170.9 33.96 172.52 31.48 173.52C29 174.48 26.5 174.96 23.98 174.96C20.78 174.96 17.92 174.38 15.4 173.22C12.88 172.02 10.74 170.42 8.98 168.42C7.22 166.42 5.88 164.12 4.96 161.52C4.04 158.92 3.58 156.22 3.58 153.42C3.58 150.3 4 147.34 4.84 144.54C5.72 141.7 7 139.22 8.68 137.1C10.4 134.98 12.52 133.3 15.04 132.06C17.6 130.78 20.58 130.14 23.98 130.14C26.3 130.14 28.48 130.42 30.52 130.98C32.6 131.5 34.44 132.34 36.04 133.5C37.68 134.66 39.04 136.14 40.12 137.94C41.24 139.7 42 141.84 42.4 144.36H36.7C36.42 142.72 35.9 141.32 35.14 140.16C34.38 138.96 33.44 137.98 32.32 137.22C31.2 136.46 29.92 135.9 28.48 135.54C27.08 135.14 25.58 134.94 23.98 134.94C21.38 134.94 19.14 135.46 17.26 136.5C15.42 137.54 13.9 138.92 12.7 140.64C11.54 142.32 10.68 144.26 10.12 146.46C9.56 148.62 9.28 150.84 9.28 153.12C9.28 155.36 9.6 157.52 10.24 159.6C10.88 161.64 11.82 163.46 13.06 165.06C14.3 166.62 15.82 167.88 17.62 168.84C19.46 169.76 21.58 170.22 23.98 170.22C26.22 170.22 28.2 169.86 29.92 169.14C31.64 168.42 33.08 167.44 34.24 166.2C35.44 164.92 36.34 163.44 36.94 161.76C37.54 160.04 37.8 158.2 37.72 156.24H24.04V151.44H42.82V174H39.22L37.72 168.66ZM51.1873 142.98H55.9873V149.52H56.1073C57.3473 147 58.8673 145.14 60.6673 143.94C62.4673 142.74 64.7473 142.18 67.5073 142.26V147.66C65.4673 147.66 63.7273 147.94 62.2873 148.5C60.8473 149.06 59.6873 149.88 58.8073 150.96C57.9273 152.04 57.2873 153.36 56.8873 154.92C56.4873 156.44 56.2873 158.2 56.2873 160.2V174H51.1873V142.98ZM92.8331 155.52C92.7531 154.32 92.4731 153.18 91.9931 152.1C91.5531 151.02 90.9331 150.1 90.1331 149.34C89.3731 148.54 88.4531 147.92 87.3731 147.48C86.3331 147 85.1731 146.76 83.8931 146.76C82.5731 146.76 81.3731 147 80.2931 147.48C79.2531 147.92 78.3531 148.54 77.5931 149.34C76.8331 150.14 76.2331 151.08 75.7931 152.16C75.3531 153.2 75.0931 154.32 75.0131 155.52H92.8331ZM97.7531 164.16C97.0731 167.64 95.5731 170.26 93.2531 172.02C90.9331 173.78 88.0131 174.66 84.4931 174.66C82.0131 174.66 79.8531 174.26 78.0131 173.46C76.2131 172.66 74.6931 171.54 73.4531 170.1C72.2131 168.66 71.2731 166.94 70.6331 164.94C70.0331 162.94 69.6931 160.76 69.6131 158.4C69.6131 156.04 69.9731 153.88 70.6931 151.92C71.4131 149.96 72.4131 148.26 73.6931 146.82C75.0131 145.38 76.5531 144.26 78.3131 143.46C80.1131 142.66 82.0731 142.26 84.1931 142.26C86.9531 142.26 89.2331 142.84 91.0331 144C92.8731 145.12 94.3331 146.56 95.4131 148.32C96.5331 150.08 97.2931 152 97.6931 154.08C98.1331 156.16 98.3131 158.14 98.2331 160.02H75.0131C74.9731 161.38 75.1331 162.68 75.4931 163.92C75.8531 165.12 76.4331 166.2 77.2331 167.16C78.0331 168.08 79.0531 168.82 80.2931 169.38C81.5331 169.94 82.9931 170.22 84.6731 170.22C86.8331 170.22 88.5931 169.72 89.9531 168.72C91.3531 167.72 92.2731 166.2 92.7131 164.16H97.7531ZM132 173.88C131.12 174.4 129.9 174.66 128.34 174.66C127.02 174.66 125.96 174.3 125.16 173.58C124.4 172.82 124.02 171.6 124.02 169.92C122.62 171.6 120.98 172.82 119.1 173.58C117.26 174.3 115.26 174.66 113.1 174.66C111.7 174.66 110.36 174.5 109.08 174.18C107.84 173.86 106.76 173.36 105.84 172.68C104.92 172 104.18 171.12 103.62 170.04C103.1 168.92 102.84 167.58 102.84 166.02C102.84 164.26 103.14 162.82 103.74 161.7C104.34 160.58 105.12 159.68 106.08 159C107.08 158.28 108.2 157.74 109.44 157.38C110.72 157.02 112.02 156.72 113.34 156.48C114.74 156.2 116.06 156 117.3 155.88C118.58 155.72 119.7 155.52 120.66 155.28C121.62 155 122.38 154.62 122.94 154.14C123.5 153.62 123.78 152.88 123.78 151.92C123.78 150.8 123.56 149.9 123.12 149.22C122.72 148.54 122.18 148.02 121.5 147.66C120.86 147.3 120.12 147.06 119.28 146.94C118.48 146.82 117.68 146.76 116.88 146.76C114.72 146.76 112.92 147.18 111.48 148.02C110.04 148.82 109.26 150.36 109.14 152.64H104.04C104.12 150.72 104.52 149.1 105.24 147.78C105.96 146.46 106.92 145.4 108.12 144.6C109.32 143.76 110.68 143.16 112.2 142.8C113.76 142.44 115.42 142.26 117.18 142.26C118.58 142.26 119.96 142.36 121.32 142.56C122.72 142.76 123.98 143.18 125.1 143.82C126.22 144.42 127.12 145.28 127.8 146.4C128.48 147.52 128.82 148.98 128.82 150.78V166.74C128.82 167.94 128.88 168.82 129 169.38C129.16 169.94 129.64 170.22 130.44 170.22C130.88 170.22 131.4 170.12 132 169.92V173.88ZM123.72 157.98C123.08 158.46 122.24 158.82 121.2 159.06C120.16 159.26 119.06 159.44 117.9 159.6C116.78 159.72 115.64 159.88 114.48 160.08C113.32 160.24 112.28 160.52 111.36 160.92C110.44 161.32 109.68 161.9 109.08 162.66C108.52 163.38 108.24 164.38 108.24 165.66C108.24 166.5 108.4 167.22 108.72 167.82C109.08 168.38 109.52 168.84 110.04 169.2C110.6 169.56 111.24 169.82 111.96 169.98C112.68 170.14 113.44 170.22 114.24 170.22C115.92 170.22 117.36 170 118.56 169.56C119.76 169.08 120.74 168.5 121.5 167.82C122.26 167.1 122.82 166.34 123.18 165.54C123.54 164.7 123.72 163.92 123.72 163.2V157.98ZM144.826 142.98H151.006V147.48H144.826V166.74C144.826 167.34 144.866 167.82 144.946 168.18C145.066 168.54 145.266 168.82 145.546 169.02C145.826 169.22 146.206 169.36 146.686 169.44C147.206 169.48 147.866 169.5 148.666 169.5H151.006V174H147.106C145.786 174 144.646 173.92 143.686 173.76C142.766 173.56 142.006 173.22 141.406 172.74C140.846 172.26 140.426 171.58 140.146 170.7C139.866 169.82 139.726 168.66 139.726 167.22V147.48H134.446V142.98H139.726V133.68H144.826V142.98ZM13.06 213.3H27.58L20.44 193.32H20.32L13.06 213.3ZM17.32 188.16H23.62L40.36 231H34.06L29.38 218.1H11.26L6.46 231H0.64L17.32 188.16ZM71.5063 228.36C71.5063 233.44 70.3463 237.24 68.0263 239.76C65.7063 242.28 62.0663 243.54 57.1063 243.54C55.6663 243.54 54.1863 243.38 52.6663 243.06C51.1863 242.74 49.8263 242.22 48.5863 241.5C47.3863 240.78 46.3863 239.84 45.5863 238.68C44.7863 237.52 44.3463 236.1 44.2663 234.42H49.3663C49.4063 235.34 49.6863 236.12 50.2063 236.76C50.7663 237.4 51.4263 237.92 52.1863 238.32C52.9863 238.72 53.8463 239 54.7663 239.16C55.6863 239.36 56.5663 239.46 57.4063 239.46C59.0863 239.46 60.5063 239.16 61.6663 238.56C62.8263 238 63.7863 237.2 64.5463 236.16C65.3063 235.16 65.8463 233.94 66.1663 232.5C66.5263 231.06 66.7063 229.48 66.7063 227.76V225.72H66.5863C65.7063 227.64 64.3663 229.06 62.5663 229.98C60.8063 230.86 58.9263 231.3 56.9263 231.3C54.6063 231.3 52.5863 230.88 50.8663 230.04C49.1463 229.2 47.7063 228.08 46.5463 226.68C45.3863 225.24 44.5063 223.58 43.9063 221.7C43.3463 219.78 43.0663 217.76 43.0663 215.64C43.0663 213.8 43.3063 211.92 43.7863 210C44.2663 208.04 45.0663 206.28 46.1863 204.72C47.3063 203.12 48.7863 201.82 50.6263 200.82C52.4663 199.78 54.7263 199.26 57.4063 199.26C59.3663 199.26 61.1663 199.7 62.8063 200.58C64.4463 201.42 65.7263 202.7 66.6463 204.42H66.7063V199.98H71.5063V228.36ZM57.2263 226.86C58.9063 226.86 60.3263 226.52 61.4863 225.84C62.6863 225.12 63.6463 224.2 64.3663 223.08C65.0863 221.92 65.6063 220.62 65.9263 219.18C66.2863 217.74 66.4663 216.3 66.4663 214.86C66.4663 213.5 66.3063 212.16 65.9863 210.84C65.6663 209.52 65.1463 208.34 64.4263 207.3C63.7463 206.22 62.8463 205.36 61.7263 204.72C60.6063 204.08 59.2463 203.76 57.6463 203.76C56.0063 203.76 54.6063 204.08 53.4463 204.72C52.2863 205.32 51.3263 206.14 50.5663 207.18C49.8463 208.22 49.3063 209.42 48.9463 210.78C48.6263 212.14 48.4663 213.56 48.4663 215.04C48.4663 216.44 48.6063 217.84 48.8863 219.24C49.1663 220.64 49.6463 221.92 50.3263 223.08C51.0063 224.2 51.9063 225.12 53.0263 225.84C54.1463 226.52 55.5463 226.86 57.2263 226.86ZM107.679 230.88C106.799 231.4 105.579 231.66 104.019 231.66C102.699 231.66 101.639 231.3 100.839 230.58C100.079 229.82 99.6994 228.6 99.6994 226.92C98.2994 228.6 96.6594 229.82 94.7794 230.58C92.9394 231.3 90.9394 231.66 88.7794 231.66C87.3794 231.66 86.0394 231.5 84.7594 231.18C83.5194 230.86 82.4394 230.36 81.5194 229.68C80.5994 229 79.8594 228.12 79.2994 227.04C78.7794 225.92 78.5194 224.58 78.5194 223.02C78.5194 221.26 78.8194 219.82 79.4194 218.7C80.0194 217.58 80.7994 216.68 81.7594 216C82.7594 215.28 83.8794 214.74 85.1194 214.38C86.3994 214.02 87.6994 213.72 89.0194 213.48C90.4194 213.2 91.7394 213 92.9794 212.88C94.2594 212.72 95.3794 212.52 96.3394 212.28C97.2994 212 98.0594 211.62 98.6194 211.14C99.1794 210.62 99.4594 209.88 99.4594 208.92C99.4594 207.8 99.2394 206.9 98.7994 206.22C98.3994 205.54 97.8594 205.02 97.1794 204.66C96.5394 204.3 95.7994 204.06 94.9594 203.94C94.1594 203.82 93.3594 203.76 92.5594 203.76C90.3994 203.76 88.5994 204.18 87.1594 205.02C85.7194 205.82 84.9394 207.36 84.8194 209.64H79.7194C79.7994 207.72 80.1994 206.1 80.9194 204.78C81.6394 203.46 82.5994 202.4 83.7994 201.6C84.9994 200.76 86.3594 200.16 87.8794 199.8C89.4394 199.44 91.0994 199.26 92.8594 199.26C94.2594 199.26 95.6394 199.36 96.9994 199.56C98.3994 199.76 99.6594 200.18 100.779 200.82C101.899 201.42 102.799 202.28 103.479 203.4C104.159 204.52 104.499 205.98 104.499 207.78V223.74C104.499 224.94 104.559 225.82 104.679 226.38C104.839 226.94 105.319 227.22 106.119 227.22C106.559 227.22 107.079 227.12 107.679 226.92V230.88ZM99.3994 214.98C98.7594 215.46 97.9194 215.82 96.8794 216.06C95.8394 216.26 94.7394 216.44 93.5794 216.6C92.4594 216.72 91.3194 216.88 90.1594 217.08C88.9994 217.24 87.9594 217.52 87.0394 217.92C86.1194 218.32 85.3594 218.9 84.7594 219.66C84.1994 220.38 83.9194 221.38 83.9194 222.66C83.9194 223.5 84.0794 224.22 84.3994 224.82C84.7594 225.38 85.1994 225.84 85.7194 226.2C86.2794 226.56 86.9194 226.82 87.6394 226.98C88.3594 227.14 89.1194 227.22 89.9194 227.22C91.5994 227.22 93.0394 227 94.2394 226.56C95.4394 226.08 96.4194 225.5 97.1794 224.82C97.9394 224.1 98.4994 223.34 98.8594 222.54C99.2194 221.7 99.3994 220.92 99.3994 220.2V214.98ZM118.826 194.4H113.726V188.16H118.826V194.4ZM113.726 199.98H118.826V231H113.726V199.98ZM127.727 199.98H132.527V204.9H132.647C134.767 201.14 138.127 199.26 142.727 199.26C144.767 199.26 146.467 199.54 147.827 200.1C149.187 200.66 150.287 201.44 151.127 202.44C151.967 203.44 152.547 204.64 152.867 206.04C153.227 207.4 153.407 208.92 153.407 210.6V231H148.307V210C148.307 208.08 147.747 206.56 146.627 205.44C145.507 204.32 143.967 203.76 142.007 203.76C140.447 203.76 139.087 204 137.927 204.48C136.807 204.96 135.867 205.64 135.107 206.52C134.347 207.4 133.767 208.44 133.367 209.64C133.007 210.8 132.827 212.08 132.827 213.48V231H127.727V199.98Z" fill="rgb(64, 72, 243)"/>
<circle cx="215.392" cy="219.82" r="16.7797" transform="rotate(-3 215.392 219.82)" fill="rgb(64, 72, 243)"/>
<path d="M188 17.7563L217.79 16.1951L222.888 177.607L200.732 178.768L188 17.7563Z" fill="rgb(64, 72, 243)"/>
</svg>
